<?xml version="1.0" encoding="utf-8"?>
<!-- Generator: Adobe Illustrator 16.0.0, SVG Export Plug-In . SVG Version: 6.00 Build 0)  -->
<!DOCTYPE svg PUBLIC "-//W3C//DTD SVG 1.1 Tiny//EN" "http://www.w3.org/Graphics/SVG/1.1/DTD/svg11-tiny.dtd">
<svg version="1.1" baseProfile="tiny" id="Layer_1" xmlns="http://www.w3.org/2000/svg" xmlns:xlink="http://www.w3.org/1999/xlink"
	 x="0px" y="0px" width="205.92px" height="53.265px" viewBox="0 0 205.92 53.265" xml:space="preserve">
<g>
	<path fill="#FFFFFF" d="M50.771,52.845L36.415,36.016c0,0,10.407-0.021,10.494-0.023c1.155,0.044,2.334-0.309,3.288-1.109
		c2.049-1.713,2.324-4.763,0.609-6.819L28.503,1.892c-0.213-0.281-0.454-0.547-0.736-0.784c-0.034-0.026-0.074-0.045-0.106-0.071
		c-0.01-0.009-0.024-0.015-0.035-0.022c-0.245-0.19-0.498-0.357-0.762-0.495c-0.016-0.008-0.035-0.013-0.052-0.02
		C26.547,0.366,26.277,0.256,26,0.177c-0.05-0.01-0.104-0.022-0.156-0.034c-0.244-0.057-0.49-0.112-0.739-0.132
		c-0.152-0.019-0.305-0.007-0.454-0.007c-0.151,0-0.299-0.013-0.452,0.007c-0.247,0.02-0.493,0.075-0.739,0.132
		c-0.052,0.012-0.102,0.024-0.153,0.034c-0.28,0.079-0.55,0.189-0.813,0.322c-0.019,0.008-0.035,0.012-0.05,0.02
		c-0.269,0.138-0.526,0.305-0.765,0.495c-0.015,0.008-0.022,0.014-0.033,0.022c-0.035,0.026-0.073,0.045-0.108,0.071
		c-0.281,0.237-0.523,0.503-0.739,0.778L0,26.27h12.724l11.928-13.98l11.97,14.05l-10.65,0.007c-0.04,0-0.077,0.012-0.117,0.014
		c-0.252,0-0.508,0.024-0.761,0.063c-0.073,0.015-0.146,0.03-0.215,0.046c-0.229,0.047-0.458,0.117-0.682,0.202
		c-0.083,0.03-0.16,0.063-0.234,0.102c-0.204,0.087-0.4,0.19-0.591,0.311c-0.084,0.054-0.17,0.115-0.251,0.174
		c-0.103,0.072-0.209,0.125-0.304,0.201c-0.067,0.06-0.121,0.13-0.186,0.195c-0.077,0.071-0.153,0.15-0.227,0.231
		c-0.146,0.151-0.28,0.309-0.399,0.468c-0.06,0.093-0.115,0.18-0.171,0.271c-0.112,0.173-0.208,0.347-0.293,0.527
		c-0.051,0.111-0.093,0.225-0.136,0.339c-0.064,0.174-0.128,0.349-0.168,0.531c-0.033,0.127-0.055,0.265-0.074,0.397
		c-0.031,0.179-0.052,0.354-0.062,0.534c-0.005,0.064-0.021,0.119-0.021,0.183c0,0.089,0.021,0.168,0.024,0.259
		c0.01,0.165,0.02,0.324,0.045,0.489c0.022,0.165,0.06,0.328,0.098,0.489c0.035,0.135,0.072,0.265,0.119,0.402
		c0.063,0.174,0.135,0.351,0.219,0.516c0.053,0.105,0.104,0.207,0.166,0.308c0.108,0.19,0.228,0.365,0.358,0.534
		c0.04,0.049,0.061,0.101,0.103,0.146l15.84,18.568h12.722V52.845z"/>
	<g>
		<path fill="#FFFFFF" d="M69.748,16.175c0.814,0,1.547,0.132,2.2,0.395s1.212,0.623,1.679,1.081
			c0.466,0.458,0.822,0.988,1.068,1.59c0.246,0.602,0.369,1.251,0.369,1.946c0,1.068-0.225,1.992-0.674,2.772
			c-0.45,0.78-1.183,1.374-2.201,1.78v0.051c0.492,0.137,0.899,0.344,1.221,0.624c0.322,0.279,0.585,0.61,0.789,0.992
			c0.204,0.381,0.352,0.801,0.445,1.259c0.093,0.458,0.156,0.916,0.19,1.374c0.017,0.288,0.034,0.627,0.051,1.018
			c0.017,0.39,0.046,0.788,0.089,1.195c0.042,0.407,0.11,0.793,0.204,1.157c0.093,0.365,0.233,0.675,0.419,0.929h-3.994
			c-0.221-0.576-0.356-1.264-0.407-2.061c-0.051-0.797-0.127-1.561-0.229-2.289c-0.136-0.95-0.424-1.646-0.865-2.086
			c-0.441-0.441-1.162-0.662-2.162-0.662h-3.994v7.098h-3.994V16.175H69.748z M68.323,24.392c0.916,0,1.603-0.204,2.061-0.61
			c0.458-0.407,0.687-1.069,0.687-1.984c0-0.882-0.229-1.522-0.687-1.921s-1.145-0.598-2.061-0.598h-4.375v5.113H68.323z"/>
		<path fill="#FFFFFF" d="M76.87,21.555c0.407-1.161,0.992-2.175,1.755-3.04c0.764-0.864,1.699-1.543,2.811-2.035
			c1.111-0.491,2.361-0.737,3.752-0.737c1.408,0,2.662,0.246,3.766,0.737c1.102,0.492,2.035,1.171,2.799,2.035
			c0.762,0.865,1.348,1.879,1.754,3.04c0.408,1.162,0.611,2.421,0.611,3.778c0,1.322-0.203,2.556-0.611,3.701
			c-0.406,1.145-0.992,2.141-1.754,2.989c-0.764,0.848-1.697,1.513-2.799,1.996c-1.104,0.483-2.357,0.726-3.766,0.726
			c-1.391,0-2.641-0.242-3.752-0.726s-2.047-1.148-2.811-1.996c-0.763-0.849-1.348-1.845-1.755-2.989
			c-0.407-1.146-0.61-2.379-0.61-3.701C76.259,23.976,76.463,22.717,76.87,21.555z M80.52,27.559
			c0.178,0.721,0.463,1.369,0.854,1.946c0.389,0.576,0.898,1.039,1.525,1.386c0.627,0.348,1.391,0.521,2.289,0.521
			s1.662-0.174,2.291-0.521c0.627-0.347,1.135-0.81,1.525-1.386c0.391-0.577,0.674-1.226,0.852-1.946
			c0.18-0.721,0.268-1.463,0.268-2.226c0-0.798-0.088-1.569-0.268-2.315c-0.178-0.746-0.461-1.412-0.852-1.997
			s-0.898-1.051-1.525-1.399c-0.629-0.347-1.393-0.521-2.291-0.521s-1.662,0.175-2.289,0.521c-0.627,0.349-1.137,0.814-1.525,1.399
			c-0.391,0.585-0.676,1.251-0.854,1.997s-0.266,1.518-0.266,2.315C80.254,26.096,80.342,26.838,80.52,27.559z"/>
		<path fill="#FFFFFF" d="M107.219,21.021c-0.237-0.382-0.534-0.716-0.891-1.005c-0.355-0.288-0.759-0.513-1.208-0.674
			s-0.92-0.242-1.412-0.242c-0.898,0-1.662,0.175-2.289,0.521c-0.628,0.349-1.137,0.814-1.526,1.399
			c-0.391,0.585-0.675,1.251-0.853,1.997s-0.267,1.518-0.267,2.315c0,0.763,0.089,1.505,0.267,2.226s0.462,1.369,0.853,1.946
			c0.39,0.576,0.898,1.039,1.526,1.386c0.627,0.348,1.391,0.521,2.289,0.521c1.222,0,2.175-0.372,2.862-1.119
			c0.687-0.746,1.106-1.729,1.259-2.951h3.867c-0.103,1.137-0.365,2.163-0.789,3.078c-0.424,0.916-0.983,1.696-1.679,2.341
			s-1.51,1.137-2.442,1.476s-1.959,0.509-3.078,0.509c-1.391,0-2.642-0.242-3.752-0.726c-1.111-0.483-2.048-1.148-2.812-1.996
			c-0.763-0.849-1.348-1.845-1.755-2.989c-0.407-1.146-0.61-2.379-0.61-3.701c0-1.357,0.203-2.616,0.61-3.778
			c0.407-1.161,0.992-2.175,1.755-3.04c0.764-0.864,1.7-1.543,2.812-2.035c1.11-0.491,2.361-0.737,3.752-0.737
			c1.001,0,1.946,0.145,2.837,0.433c0.89,0.288,1.687,0.708,2.391,1.259c0.704,0.552,1.285,1.234,1.743,2.048
			c0.458,0.814,0.746,1.747,0.864,2.799h-3.866C107.608,21.822,107.456,21.402,107.219,21.021z"/>
		<path fill="#FFFFFF" d="M117.14,16.175v7.529l7.098-7.529h4.986l-7.098,7.174l7.784,10.989h-5.012l-5.469-8.166l-2.29,2.315v5.851
			h-3.994V16.175H117.14z"/>
		<path fill="#FFFFFF" d="M139.093,29.86c0.221,0.425,0.513,0.768,0.878,1.03c0.364,0.264,0.793,0.458,1.285,0.585
			c0.491,0.128,1,0.191,1.525,0.191c0.356,0,0.738-0.029,1.146-0.089c0.406-0.06,0.788-0.174,1.145-0.344
			c0.356-0.169,0.652-0.402,0.891-0.699c0.237-0.297,0.355-0.675,0.355-1.133c0-0.491-0.156-0.89-0.471-1.195
			c-0.313-0.305-0.725-0.56-1.233-0.763c-0.509-0.204-1.086-0.382-1.729-0.534c-0.646-0.153-1.298-0.322-1.959-0.509
			c-0.679-0.17-1.34-0.378-1.984-0.624c-0.645-0.245-1.221-0.563-1.729-0.953c-0.509-0.391-0.921-0.878-1.234-1.463
			s-0.471-1.293-0.471-2.124c0-0.933,0.199-1.743,0.599-2.43c0.397-0.687,0.919-1.26,1.564-1.717
			c0.644-0.458,1.373-0.798,2.188-1.018c0.813-0.221,1.628-0.331,2.442-0.331c0.949,0,1.86,0.106,2.734,0.318
			c0.873,0.212,1.649,0.556,2.327,1.03c0.679,0.475,1.217,1.081,1.615,1.818c0.398,0.738,0.599,1.633,0.599,2.684h-3.867
			c-0.034-0.542-0.148-0.992-0.344-1.348c-0.194-0.356-0.453-0.637-0.775-0.84s-0.691-0.348-1.106-0.433
			c-0.416-0.084-0.869-0.127-1.361-0.127c-0.322,0-0.645,0.034-0.967,0.102c-0.322,0.068-0.614,0.187-0.877,0.356
			c-0.264,0.17-0.479,0.382-0.649,0.636c-0.169,0.255-0.254,0.577-0.254,0.967c0,0.356,0.067,0.645,0.203,0.865
			s0.403,0.424,0.802,0.61s0.949,0.373,1.653,0.56c0.703,0.187,1.624,0.424,2.76,0.712c0.34,0.068,0.81,0.191,1.412,0.369
			c0.602,0.178,1.199,0.462,1.794,0.853c0.593,0.39,1.106,0.911,1.539,1.564c0.432,0.652,0.648,1.488,0.648,2.506
			c0,0.831-0.161,1.603-0.483,2.314s-0.802,1.327-1.438,1.845s-1.425,0.92-2.365,1.208c-0.941,0.288-2.031,0.433-3.27,0.433
			c-1.001,0-1.972-0.123-2.912-0.369c-0.941-0.245-1.772-0.632-2.493-1.157c-0.722-0.525-1.294-1.195-1.718-2.01
			s-0.627-1.781-0.61-2.9h3.867C138.763,28.919,138.872,29.437,139.093,29.86z"/>
		<path fill="#FFFFFF" d="M151.1,21.555c0.407-1.161,0.992-2.175,1.755-3.04c0.764-0.864,1.7-1.543,2.812-2.035
			c1.11-0.491,2.361-0.737,3.752-0.737c1.407,0,2.662,0.246,3.765,0.737c1.103,0.492,2.035,1.171,2.799,2.035
			c0.763,0.865,1.349,1.879,1.755,3.04c0.407,1.162,0.61,2.421,0.61,3.778c0,1.322-0.203,2.556-0.61,3.701
			c-0.406,1.145-0.992,2.141-1.755,2.989c-0.764,0.848-1.696,1.513-2.799,1.996s-2.357,0.726-3.765,0.726
			c-1.391,0-2.642-0.242-3.752-0.726c-1.111-0.483-2.048-1.148-2.812-1.996c-0.763-0.849-1.348-1.845-1.755-2.989
			c-0.407-1.146-0.61-2.379-0.61-3.701C150.489,23.976,150.692,22.717,151.1,21.555z M154.75,27.559
			c0.178,0.721,0.462,1.369,0.853,1.946c0.39,0.576,0.898,1.039,1.526,1.386c0.627,0.348,1.391,0.521,2.289,0.521
			s1.662-0.174,2.29-0.521c0.627-0.347,1.136-0.81,1.526-1.386c0.39-0.577,0.674-1.226,0.852-1.946
			c0.179-0.721,0.268-1.463,0.268-2.226c0-0.798-0.089-1.569-0.268-2.315c-0.178-0.746-0.462-1.412-0.852-1.997
			c-0.391-0.585-0.899-1.051-1.526-1.399c-0.628-0.347-1.392-0.521-2.29-0.521s-1.662,0.175-2.289,0.521
			c-0.628,0.349-1.137,0.814-1.526,1.399c-0.391,0.585-0.675,1.251-0.853,1.997s-0.267,1.518-0.267,2.315
			C154.483,26.096,154.572,26.838,154.75,27.559z"/>
		<path fill="#FFFFFF" d="M173.791,16.175v14.805h8.853v3.358h-12.847V16.175H173.791z"/>
		<path fill="#FFFFFF" d="M187.604,16.175v18.163h-3.994V16.175H187.604z"/>
		<path fill="#FFFFFF" d="M197.678,16.175c1.17,0,2.26,0.187,3.269,0.56s1.883,0.933,2.62,1.679
			c0.737,0.747,1.314,1.679,1.729,2.799c0.416,1.119,0.624,2.434,0.624,3.942c0,1.323-0.17,2.544-0.509,3.663
			c-0.34,1.119-0.853,2.086-1.539,2.9c-0.688,0.813-1.544,1.454-2.569,1.921c-1.026,0.466-2.235,0.699-3.625,0.699h-7.836V16.175
			H197.678z M197.397,30.979c0.576,0,1.136-0.093,1.679-0.279s1.026-0.496,1.45-0.929s0.764-0.996,1.018-1.691
			c0.255-0.695,0.382-1.543,0.382-2.544c0-0.916-0.089-1.742-0.268-2.48c-0.178-0.737-0.471-1.369-0.877-1.896
			c-0.407-0.525-0.946-0.928-1.616-1.208c-0.67-0.279-1.496-0.42-2.479-0.42h-2.85v11.447H197.397z"/>
		<path fill="#FFFFFF" d="M68.968,42.094c-0.261-0.413-0.579-0.761-0.954-1.04c-0.375-0.279-0.789-0.493-1.24-0.64
			c-0.452-0.146-0.925-0.219-1.421-0.219c-0.903,0-1.679,0.172-2.328,0.515c-0.649,0.344-1.18,0.799-1.593,1.364
			c-0.414,0.566-0.719,1.205-0.916,1.918c-0.197,0.712-0.295,1.443-0.295,2.193c0,0.738,0.098,1.467,0.295,2.185
			c0.197,0.719,0.502,1.361,0.916,1.928c0.413,0.565,0.944,1.021,1.593,1.363c0.648,0.344,1.424,0.516,2.328,0.516
			c0.636,0,1.208-0.114,1.717-0.344c0.509-0.229,0.948-0.54,1.316-0.935c0.369-0.395,0.668-0.855,0.897-1.383
			c0.229-0.528,0.375-1.098,0.439-1.708h1.297c-0.089,0.84-0.286,1.597-0.592,2.271c-0.305,0.674-0.7,1.246-1.183,1.717
			c-0.483,0.471-1.053,0.833-1.708,1.088c-0.655,0.254-1.383,0.382-2.185,0.382c-1.068,0-2.007-0.194-2.814-0.582
			c-0.808-0.389-1.479-0.906-2.013-1.556c-0.534-0.648-0.935-1.398-1.202-2.251c-0.267-0.852-0.4-1.749-0.4-2.69
			c0-0.94,0.133-1.838,0.4-2.689c0.267-0.853,0.668-1.606,1.202-2.262c0.534-0.654,1.205-1.176,2.013-1.564
			c0.808-0.388,1.746-0.581,2.814-0.581c0.648,0,1.281,0.095,1.898,0.286c0.617,0.19,1.176,0.474,1.679,0.849
			s0.922,0.837,1.259,1.383c0.337,0.548,0.55,1.177,0.639,1.89h-1.297C69.417,42.975,69.229,42.507,68.968,42.094z"/>
		<path fill="#FFFFFF" d="M74.301,39.375v5.914h8.09v-5.914h1.297v13.622h-1.297v-6.602h-8.09v6.602h-1.297V39.375H74.301z"/>
		<path fill="#FFFFFF" d="M87.599,39.375v8.433c0,0.789,0.089,1.46,0.268,2.013c0.178,0.554,0.438,1.005,0.782,1.354
			c0.344,0.351,0.763,0.604,1.259,0.764s1.056,0.238,1.68,0.238c0.636,0,1.201-0.079,1.697-0.238s0.916-0.413,1.26-0.764
			c0.344-0.35,0.604-0.801,0.782-1.354c0.178-0.553,0.267-1.224,0.267-2.013v-8.433h1.298v8.719c0,0.699-0.099,1.364-0.296,1.994
			c-0.197,0.629-0.509,1.18-0.935,1.65c-0.427,0.471-0.974,0.843-1.641,1.115c-0.668,0.273-1.479,0.411-2.433,0.411
			c-0.941,0-1.746-0.138-2.414-0.411c-0.668-0.272-1.215-0.645-1.641-1.115s-0.737-1.021-0.935-1.65
			c-0.197-0.63-0.296-1.295-0.296-1.994v-8.719H87.599z"/>
		<path fill="#FFFFFF" d="M105.743,39.375c0.56,0,1.091,0.069,1.594,0.21c0.502,0.14,0.94,0.353,1.316,0.639
			c0.375,0.286,0.674,0.655,0.896,1.106c0.223,0.452,0.334,0.982,0.334,1.593c0,0.865-0.223,1.616-0.668,2.252
			s-1.106,1.043-1.984,1.221v0.038c0.445,0.064,0.814,0.182,1.106,0.354c0.293,0.172,0.531,0.391,0.716,0.658
			c0.185,0.267,0.317,0.575,0.4,0.925c0.083,0.351,0.137,0.729,0.162,1.136c0.013,0.229,0.025,0.509,0.038,0.839
			c0.013,0.331,0.038,0.665,0.076,1.002c0.039,0.337,0.099,0.655,0.182,0.954s0.194,0.531,0.334,0.696h-1.431
			c-0.076-0.127-0.137-0.283-0.182-0.468c-0.045-0.184-0.076-0.375-0.096-0.572c-0.019-0.197-0.035-0.391-0.047-0.582
			c-0.014-0.19-0.026-0.355-0.038-0.496c-0.026-0.482-0.067-0.963-0.124-1.44c-0.058-0.477-0.179-0.902-0.363-1.278
			c-0.185-0.375-0.451-0.677-0.801-0.906c-0.351-0.229-0.83-0.33-1.44-0.305h-4.923v6.048h-1.297V39.375H105.743z M105.648,45.843
			c0.394,0,0.769-0.061,1.125-0.182s0.668-0.296,0.936-0.524c0.267-0.229,0.479-0.506,0.639-0.83s0.238-0.696,0.238-1.116
			c0-0.84-0.241-1.501-0.725-1.984s-1.222-0.725-2.213-0.725h-4.847v5.361H105.648z"/>
		<path fill="#FFFFFF" d="M121.627,42.094c-0.261-0.413-0.579-0.761-0.954-1.04c-0.376-0.279-0.789-0.493-1.24-0.64
			c-0.452-0.146-0.926-0.219-1.422-0.219c-0.903,0-1.679,0.172-2.327,0.515c-0.648,0.344-1.18,0.799-1.593,1.364
			c-0.414,0.566-0.719,1.205-0.916,1.918c-0.197,0.712-0.296,1.443-0.296,2.193c0,0.738,0.099,1.467,0.296,2.185
			c0.197,0.719,0.502,1.361,0.916,1.928c0.413,0.565,0.944,1.021,1.593,1.363c0.648,0.344,1.424,0.516,2.327,0.516
			c0.636,0,1.209-0.114,1.718-0.344c0.508-0.229,0.947-0.54,1.316-0.935c0.368-0.395,0.668-0.855,0.896-1.383
			c0.229-0.528,0.375-1.098,0.438-1.708h1.298c-0.089,0.84-0.286,1.597-0.592,2.271c-0.305,0.674-0.699,1.246-1.183,1.717
			s-1.053,0.833-1.708,1.088c-0.655,0.254-1.383,0.382-2.185,0.382c-1.068,0-2.006-0.194-2.813-0.582
			c-0.809-0.389-1.479-0.906-2.013-1.556c-0.535-0.648-0.936-1.398-1.202-2.251c-0.268-0.852-0.401-1.749-0.401-2.69
			c0-0.94,0.134-1.838,0.401-2.689c0.267-0.853,0.667-1.606,1.202-2.262c0.534-0.654,1.204-1.176,2.013-1.564
			c0.808-0.388,1.745-0.581,2.813-0.581c0.649,0,1.281,0.095,1.898,0.286c0.617,0.19,1.177,0.474,1.68,0.849
			c0.502,0.375,0.922,0.837,1.259,1.383c0.337,0.548,0.55,1.177,0.639,1.89h-1.297C122.075,42.975,121.887,42.507,121.627,42.094z"
			/>
		<path fill="#FFFFFF" d="M126.959,39.375v5.914h8.09v-5.914h1.297v13.622h-1.297v-6.602h-8.09v6.602h-1.297V39.375H126.959z"/>
	</g>
</g>
</svg>
